{"title":"The Amazing Spiderman 2012.R5.XVID.LINE-AT","uid":7739908,"size":1221379064,"categoryP":"video","categoryS":"movies","magnet":"?xt=urn:btih:3c6e5d4b2747176ed9ee8a3c78358dde8c2f47d5&amp;dn=The+Amazing+Spiderman+2012.R5.XVID.LINE-AT&amp;tr=udp%3A%2F%2Ftracker.openbittorrent.com%3A80&amp;tr=udp%3A%2F%2Fopen.demonii.com%3A1337&amp;tr=udp%3A%2F%2Ftracker.coppersurfer.tk%3A6969&amp;tr=udp%3A%2F%2Fexodus.desync.com%3A6969","seeders":0,"leechers":1,"uploader":"Acesn8s","files":-1,"time":1350597600,"description":"[IMG]http://lookpic.com/remote-upload.php?img=http://i.imgur.com/8MwGY.jpg[/IMG] &lt;a href=&quot;\nhttp://www.imdb.com/title/tt0948470/&quot; rel=&quot;nofollow&quot; target=&quot;_NEW&quot;&gt;\nhttp://www.imdb.com/title/tt0948470/&lt;/a&gt;\n\nFormat/Info                              : Audio Video Interleave\nFile size                                : 1.14 GiB\nDuration                                 : 2h 10mn\nOverall bit rate                         : 1 246 Kbps\nWriting application                      : VirtualDubMod 1.5.10.2 (build 2542/release)\nWriting library                          : VirtualDub build 32842/release\n\nVideo\nID                                       : 0\nFormat                                   : MPEG-4 Visual\nFormat profile                           : Advanced Simple@L5\nFormat settings, BVOP                    : 2\nFormat settings, QPel                    : No\nFormat settings, GMC                     : No warppoints\nFormat settings, Matrix                  : Default (MPEG)\nCodec ID                                 : XVID\nCodec ID/Hint                            : XviD\nDuration                                 : 2h 10mn\nBit rate                                 : 1 109 Kbps\nWidth                                    : 720 pixels\nHeight                                   : 304 pixels\nDisplay aspect ratio                     : 2.35:1\nFrame rate                               : 25.000 fps\nColor space                              : YUV\nChroma subsampling                       : 4:2:0\nBit depth                                : 8 bits\nScan type                                : Progressive\nCompression mode                         : Lossy\nBits/(Pixel*Frame)                       : 0.203\nStream size                              : 1.01 GiB (89%)\nWriting library                          : XviD 1.2.1 (UTC 2008-12-04)\n\nAudio\nID                                       : 1\nFormat                                   : MPEG Audio\nFormat version                           : Version 1\nFormat profile                           : Layer 3\nMode                                     : Joint stereo\nMode extension                           : MS Stereo\nCodec ID                                 : 55\nCodec ID/Hint                            : MP3\nDuration                                 : 2h 9mn\nBit rate mode                            : Constant\nBit rate                                 : 128 Kbps\nChannel(s)                               : 2 channels\nSampling rate                            : 44.1 KHz\nCompression mode                         : Lossy\nDelay relative to video                  : 2s 0ms\nStream size                              : 119 MiB (10%)\nAlignment                                : Split accross interleaves\nInterleave, duration                     : 40 ms (1.01 video frame)\nInterleave, preload duration             : 500 ms\n\nPeter Parker finds a clue that might help him understand why his parents disappeared when\nhe was young. His path puts him on a collision course with Dr. Curt Connors, his father's former partner. \n\n","torrent":{"xt":"urn:btih:3c6e5d4b2747176ed9ee8a3c78358dde8c2f47d5","amp;dn":"The+Amazing+Spiderman+2012.R5.XVID.LINE-AT","amp;tr":["udp%3A%2F%2Ftracker.openbittorrent.com%3A80","udp%3A%2F%2Fopen.demonii.com%3A1337","udp%3A%2F%2Ftracker.coppersurfer.tk%3A6969","udp%3A%2F%2Fexodus.desync.com%3A6969"],"infoHash":"3c6e5d4b2747176ed9ee8a3c78358dde8c2f47d5","infoHashBuffer":{"type":"Buffer","data":[60,110,93,75,39,71,23,110,217,238,138,60,120,53,141,222,140,47,71,213]},"announce":[],"urlList":[]}}